FFmpeg version SVN-r25716, Copyright (c) 2000-2010 the FFmpeg developers  built on Nov 10 2010 12:23:18 with gcc 4.1.2 20080704 (Red Hat 4.1.2-48)  configuration: --enable-libmp3lame --enable-shared --disable-mmx --arch=x86_64  libavutil     50.33. 0 / 50.33. 0  libavcore      0.12. 1 /  0.12. 1  libavcodec    52.94. 4 / 52.94. 4  libavformat   52.84. 0 / 52.84. 0  libavdevice   52. 2. 2 / 52. 2. 2  libavfilter    1.59. 0 /  1.59. 0  libswscale     0.12. 0 /  0.12. 0Seems stream 0 codec frame rate differs from container frame rate: 1200.00 (1200/1) -> 30.00 (30/1)Input #0, mov,mp4,m4a,3gp,3g2,mj2, from '/RAID10/data/converted_video_files/48251.mov':  Metadata:    major_brand     : qt      minor_version   : 0    compatible_brands: qt    Duration: 00:00:13.10, start: 0.000000, bitrate: 4136 kb/s    Stream #0.0(und): Video: h264, yuv420p, 512x512 [PAR 1:1 DAR 1:1], 4135 kb/s, 30 fps, 30 tbr, 600 tbn, 1200 tbc[buffer @ 0x15353220] w:512 h:512 pixfmt:yuv420pOutput #0, flv, to '/RAID10/data/converted_video_files/48251.flv':  Metadata:    encoder         : Lavf52.84.0    Stream #0.0(und): Video: flv, yuv420p, 512x512 [PAR 1:1 DAR 1:1], q=2-31, 600 kb/s, 1k tbn, 24 tbcStream mapping:  Stream #0.0 -> #0.0Press [q] to stop encodingframe=   25 fps=  0 q=24.8 size=    1323kB time=1.04 bitrate=10401.8kbits/s dup=0 drop=6    frame=   55 fps= 49 q=31.0 size=    1711kB time=2.29 bitrate=6116.9kbits/s dup=0 drop=13    frame=   84 fps= 51 q=24.8 size=    2122kB time=3.50 bitrate=4966.8kbits/s dup=0 drop=21    frame=  107 fps= 50 q=31.0 size=    2422kB time=4.46 bitrate=4450.2kbits/s dup=0 drop=26    frame=  135 fps= 51 q=31.0 size=    2806kB time=5.62 bitrate=4085.9kbits/s dup=0 drop=33    frame=  156 fps= 46 q=24.8 size=    3113kB time=6.50 bitrate=3922.7kbits/s dup=0 drop=39    frame=  166 fps= 45 q=31.0 size=    3233kB time=6.92 bitrate=3829.3kbits/s dup=0 drop=41    frame=  187 fps= 45 q=31.0 size=    3517kB time=7.79 bitrate=3697.3kbits/s dup=0 drop=46    frame=  214 fps= 46 q=31.0 size=    3884kB time=8.92 bitrate=3567.8kbits/s dup=0 drop=53    frame=  236 fps= 45 q=31.0 size=    4175kB time=9.83 bitrate=3478.0kbits/s dup=0 drop=58    frame=  260 fps= 46 q=31.0 size=    4496kB time=10.83 bitrate=3399.7kbits/s dup=0 drop=65    frame=  287 fps= 46 q=31.0 size=    4863kB time=11.96 bitrate=3331.2kbits/s dup=0 drop=71    frame=  299 fps= 45 q=31.0 size=    5036kB time=12.46 bitrate=3311.3kbits/s dup=0 drop=75    frame=  313 fps= 43 q=24.8 size=    5244kB time=13.04 bitrate=3293.8kbits/s dup=0 drop=78    frame=  315 fps= 43 q=31.0 Lsize=    5255kB time=13.12 bitrate=3279.8kbits/s dup=0 drop=78    video:5250kB audio:0kB global headers:0kB muxing overhead 0.097662%